PathFileType	4	(X/Y/Z)	D:\TRACE\spotREDO_2-26-24\spot_Both_Motion_3_9-v60.trc
DataRate	CameraRate	NumFrames	NumMarkers	Units	OrigDataRate	OrigDataStartFrame	OrigNumFrames
100.00	100.00	      41	9	mm	100.00	4376	      7000
Frame#	Time	front left toe			Front right toe			aft left toe			aft right toe			Arm			FL body			FR body			AL Body			AR Body			
		X1	Y1	Z1	X2	Y2	Z2	X3	Y3	Z3	X4	Y4	Z4	X5	Y5	Z5	X6	Y6	Z6	X7	Y7	Z7	X8	Y8	Z8	X9	Y9	Z9	

4376	43.750	-160.43556	-23.73856	-518.96936	271.35812	-18.87227	-474.97479	-133.77303	26.60480	126.47079	282.60226	33.80613	97.90584	78.23923	595.42853	-827.26672	-42.74630	480.54233	-544.87268	112.64893	484.49390	-548.79504	-27.07673	588.29291	332.41971	120.16268	582.72192	332.26617	
4377	43.760	-159.75635	-24.12840	-518.85315	271.52213	-18.58925	-474.44766	-133.51308	26.66628	126.59158	282.79385	33.80006	97.84476	78.03825	595.24023	-827.40637	-43.43756	480.35959	-545.54895	111.96494	484.74045	-549.95941	-27.18954	588.16895	332.20120	119.66331	582.33771	331.51688	
4378	43.770	-159.44543	-24.16919	-518.73792	271.82947	-18.39490	-474.26312	-133.14899	26.56647	126.54173	282.98184	33.80820	97.81316	77.90213	595.10529	-827.51221	-43.82835	480.08530	-545.99536	111.44323	484.66537	-550.57123	-27.61040	587.10583	331.27859	119.43931	581.90137	330.98752	
4379	43.780	-159.23563	-24.16759	-518.65253	272.14761	-18.32303	-474.06183	-132.68149	26.39709	126.70292	283.35989	33.93639	97.94468	77.79916	595.18732	-827.57745	-44.28352	479.97305	-546.49438	111.05220	484.56000	-550.89362	-27.81251	586.46167	330.78516	119.48734	581.32343	330.48700	
4380	43.790	-159.09688	-23.98929	-518.49506	272.37646	-18.32233	-474.88132	-132.41512	26.26428	126.63273	283.64352	33.94789	98.08880	78.20123	595.28882	-827.65295	-44.73052	479.96844	-547.26807	110.42860	484.80850	-551.82129	-27.55175	586.24646	330.53568	119.44941	580.44788	329.81268	
4381	43.800	-158.93254	-23.83706	-518.52087	272.69852	-18.03073	-474.69882	-132.08057	26.27050	126.85466	283.80823	33.85831	98.11163	78.62361	595.65308	-827.63593	-45.06607	480.01599	-547.79010	110.16861	484.91205	-552.56940	-27.45662	585.49030	330.06134	119.40958	580.24255	329.21008	
4382	43.810	-158.79649	-23.82051	-518.52472	272.92609	-17.88537	-474.66025	-131.95323	26.32469	126.72078	283.99011	33.72422	98.13377	78.94347	595.90875	-827.69830	-45.31442	479.98459	-548.21558	110.08345	484.66418	-552.66522	-27.59748	585.00684	329.55759	119.50630	579.77435	328.62198	
4383	43.820	-158.60555	-23.98566	-518.68964	272.73279	-18.30707	-475.36578	-131.67967	26.21570	126.80205	284.37991	33.59624	97.83897	79.01411	596.22772	-828.04474	-45.41655	479.90280	-548.99463	110.04564	484.74069	-553.76465	-27.54417	584.29602	328.73444	119.79043	579.34467	327.96701	
4384	43.830	-158.55310	-24.16905	-518.69379	272.90094	-18.38000	-475.46323	-131.66225	26.22441	126.51757	284.39621	33.76604	97.94628	78.81353	597.14832	-828.37048	-45.25852	479.70483	-549.55176	110.13842	484.22745	-554.37183	-27.50347	584.52637	327.94217	119.53022	579.20892	327.37616	
4385	43.840	-158.32587	-24.17979	-518.77838	273.27722	-18.39665	-475.47906	-131.52029	26.35321	126.75252	284.74176	33.96463	97.98127	77.76275	599.05469	-828.90295	-44.66330	479.64307	-550.21124	110.75854	483.80515	-554.23596	-27.25443	584.84601	327.40094	119.48809	579.30768	326.91925	
4386	43.850	-157.97760	-23.86453	-518.99335	273.60025	-18.14770	-475.15417	-131.44839	26.37695	126.51599	285.08871	34.08659	98.06460	76.69812	601.58331	-828.61249	-44.18093	480.44177	-550.67780	111.10742	484.42181	-555.36493	-27.13332	584.87360	327.08731	119.61272	579.21930	326.52222	
4387	43.860	-157.46970	-23.39723	-518.80872	273.86102	-18.61740	-476.16190	-131.17819	26.37984	126.58374	285.39969	33.99597	98.13253	75.67570	604.15009	-828.03870	-43.42463	481.18018	-551.24121	112.28277	484.84854	-554.91760	-26.96825	584.65613	326.79065	120.03019	578.84271	326.46255	
4388	43.870	-156.95280	-22.87155	-518.97504	274.18579	-18.33244	-476.19653	-130.94913	26.33833	126.90050	285.47040	33.88860	98.22198	74.21433	606.37158	-827.62500	-42.61919	482.44806	-551.40186	112.96971	486.06180	-555.20160	-26.78220	584.63300	326.93387	120.39162	578.50128	326.32581	
4389	43.880	-156.67189	-22.56001	-519.07709	274.44202	-18.20789	-476.22446	-130.55217	26.20975	126.87498	285.70395	33.68657	98.25034	73.09083	608.31232	-827.31171	-42.13973	483.50232	-551.62457	113.47879	487.17844	-555.35156	-26.09051	583.62476	326.72601	120.84522	577.99811	326.27780	
4390	43.890	-156.53275	-22.45887	-519.04431	274.59253	-18.15320	-476.23776	-130.15076	26.06417	126.96284	285.96442	33.40051	98.35439	72.67602	609.41974	-826.97968	-41.37773	484.70935	-551.55115	113.89193	488.47015	-555.50348	-25.34712	583.09668	326.80011	121.72311	577.21179	326.24390	
4391	43.900	-156.42836	-22.41964	-518.99445	274.70374	-18.07586	-476.28458	-129.71021	26.05498	127.02306	286.23694	33.37257	98.42609	72.26985	610.20862	-826.44379	-41.31769	486.23114	-551.67413	113.96889	490.14624	-556.15479	-24.20301	582.67212	326.92392	122.84652	576.72882	326.43201	
4392	43.910	-156.20496	-22.23906	-518.74335	274.85458	-17.33334	-475.94604	-129.50613	26.32497	126.84999	286.54861	33.38248	98.50251	72.56390	610.30414	-826.10931	-41.32443	487.58386	-551.53906	114.09737	491.32166	-556.08313	-22.66446	582.37927	327.31799	124.15922	576.14191	326.57666	
4393	43.920	-156.16583	-22.00773	-518.59772	274.94159	-17.22559	-476.35458	-129.29366	26.44536	127.09452	286.82373	33.38570	98.46423	73.35326	609.97369	-825.93030	-41.35167	488.91595	-551.27246	114.18166	492.50140	-556.12164	-21.32576	582.45581	327.98550	125.76346	575.78461	326.73431	
4394	43.930	-156.18739	-21.76896	-518.55615	275.14819	-16.97077	-476.34933	-129.01527	26.48551	127.28901	286.88681	33.34911	98.43789	74.06792	609.27985	-825.59735	-41.25815	490.09985	-550.96698	114.31112	493.28317	-555.62854	-19.87179	581.96185	328.02884	127.01339	575.78711	326.78369	
4395	43.940	-156.03188	-21.50018	-518.57593	275.51663	-16.27391	-476.11917	-128.79161	26.48540	127.38940	287.37592	33.25259	98.45459	74.93089	608.62244	-825.68872	-41.11116	490.88846	-550.71484	114.51205	494.34079	-555.93591	-18.56166	581.74042	328.42969	128.93176	575.57166	327.43744	
4396	43.950	-155.89540	-21.20792	-518.49744	276.07727	-15.89881	-475.50720	-128.70869	26.47247	127.36916	287.86612	33.09443	98.56434	75.42641	607.86969	-825.72089	-40.69901	491.54749	-550.22772	115.01855	494.42365	-555.26959	-17.53380	581.77997	328.85324	129.80177	575.21960	327.43018	
4397	43.960	-155.71936	-20.82892	-518.55798	276.25024	-15.67931	-475.56927	-128.44905	26.70644	127.77384	288.16226	32.93992	98.65776	76.97560	607.10913	-825.51678	-39.67097	492.17709	-549.97772	115.71128	494.95081	-554.95221	-16.54972	582.23657	329.55310	130.60835	575.06458	327.72641	
4398	43.970	-155.49678	-20.45461	-518.58136	276.06781	-16.30459	-476.49112	-128.24518	26.84714	127.87446	288.20670	32.83801	98.84460	77.78101	606.74707	-825.71924	-38.74207	492.84442	-549.71722	116.54693	495.64365	-555.17993	-15.75928	581.85962	329.61847	131.36394	574.97028	328.08130	
4399	43.980	-154.90984	-20.16870	-518.52917	276.26001	-16.30194	-476.36130	-128.13727	26.84932	127.86958	288.20129	32.78913	99.02586	78.60809	606.41870	-825.92841	-37.58026	493.12668	-549.49567	117.97446	495.94598	-554.72302	-15.06888	581.99359	329.92325	132.12080	574.96167	328.63910	
4400	43.990	-154.49008	-19.81013	-518.45551	276.47067	-16.44450	-476.28128	-128.05495	26.65271	127.92625	288.25763	32.63217	99.21420	78.91408	606.24091	-825.98468	-35.82597	493.29852	-549.04395	119.78023	495.71429	-553.65717	-14.47303	582.36926	330.41135	132.36636	574.86011	329.14413	
4401	44.000	-154.33519	-19.26985	-518.59863	276.92612	-16.10147	-475.54001	-127.89079	26.15350	127.69457	288.23343	32.54454	99.37643	78.83511	606.28589	-826.04901	-34.14748	493.63351	-548.85522	121.04831	496.01965	-553.85529	-14.12895	582.32489	330.73358	132.77916	574.57428	329.66031	
4402	44.010	-153.99855	-18.82301	-518.67395	277.20258	-16.21704	-475.38257	-127.49602	26.00196	128.08575	288.22653	32.43491	99.48492	78.96990	606.42804	-826.11182	-32.51902	493.70700	-548.44244	122.78596	496.09473	-553.18964	-13.60452	581.80371	330.96393	133.41054	574.35956	330.30853	
4403	44.020	-153.75517	-18.28178	-518.73907	277.46875	-15.96530	-475.17844	-127.28963	25.89585	128.12270	288.32428	32.39005	99.63876	78.95128	606.70380	-826.21576	-31.10856	494.15115	-548.15808	124.70226	495.99081	-551.95654	-12.76429	581.56378	331.42975	134.12389	574.06000	330.67740	
4404	44.030	-153.47203	-17.58085	-518.65814	277.69882	-15.85463	-475.32376	-127.29190	25.92378	127.94592	288.43259	32.37630	99.71413	78.93795	606.93024	-826.28033	-29.57070	494.30649	-547.61725	125.82005	496.37561	-552.19141	-11.78331	581.43164	331.87479	135.15186	573.71436	331.42050	
4405	44.040	-153.38280	-17.04377	-518.59515	277.91977	-15.22883	-475.06500	-127.18533	26.00299	128.06268	288.71481	32.41251	99.97692	78.86475	607.16693	-826.16602	-28.05223	494.54196	-547.24957	127.27876	496.55685	-551.45679	-10.87265	581.30035	332.39636	136.32567	573.47687	332.09341	
4406	44.050	-153.30554	-16.82942	-518.53925	277.94620	-15.07940	-475.12723	-126.96729	26.00516	128.06789	289.09198	32.40073	100.20998	78.72000	607.47534	-826.07977	-26.96258	494.93039	-546.66071	128.65869	496.31537	-550.40015	-9.56946	581.14307	332.92264	137.08238	573.19379	332.50269	
4407	44.060	-153.25270	-16.57722	-518.47327	277.88278	-14.97748	-475.04501	-126.76920	26.17762	128.11064	289.37601	32.21785	100.42728	78.59043	607.73486	-825.89825	-25.74530	494.86798	-545.78290	129.55750	496.54660	-550.37561	-8.10630	581.01929	333.74744	138.84988	572.87555	333.29343	
4408	44.070	-153.11633	-16.36421	-518.29651	277.99469	-14.55143	-474.85327	-126.53731	26.35837	128.28960	289.63721	31.91859	100.60207	78.65955	608.05463	-825.59045	-24.92914	495.05249	-545.37329	130.50020	496.63443	-549.74194	-6.45880	581.04718	334.31906	140.67819	572.84393	333.91809	
4409	44.080	-152.94588	-15.93985	-518.11322	278.10645	-14.12514	-474.66580	-126.39496	26.45686	128.57634	289.65836	31.70849	100.67165	78.71834	608.18402	-825.37634	-23.60045	495.44376	-544.45526	131.75281	496.55585	-548.48596	-4.61794	581.05420	335.22913	142.37111	572.64252	334.53729	
4410	44.090	-152.94411	-15.28404	-517.85797	278.25281	-13.80685	-474.55240	-126.27853	26.47384	128.66934	289.66498	31.43727	100.72593	78.85711	608.32483	-825.27795	-22.90119	495.69849	-543.79834	132.63008	496.89883	-548.37988	-3.06633	581.03253	335.97372	144.02496	572.40356	335.20990	
4411	44.100	-152.84435	-14.82701	-517.76703	278.48431	-13.36106	-474.39001	-126.15479	26.54438	128.98006	289.94025	31.16212	100.82523	79.06754	608.38776	-825.06104	-21.53712	495.93222	-542.77142	133.83597	496.92111	-547.13049	-1.19082	581.14923	337.09354	145.70100	572.52441	336.04843	
4412	44.110	-152.79930	-14.43901	-517.70660	278.37866	-13.11577	-474.44220	-126.12078	26.54165	129.12561	290.22516	31.11259	100.99279	79.75543	608.31213	-824.65955	-20.62201	496.05591	-542.07349	135.07146	497.08398	-546.28088	0.66687	580.98090	338.13889	147.62337	572.26178	336.80725	
4413	44.120	-152.65656	-13.97870	-517.61383	278.43854	-12.84128	-474.21274	-126.05518	26.56260	129.11267	290.31161	31.09611	101.11541	80.31796	608.36542	-824.29974	-19.27642	496.45251	-541.08038	135.89986	497.69757	-546.06488	2.46663	580.92651	338.98471	149.34662	572.10529	337.58997	
4414	44.130	-152.62483	-13.35954	-517.48706	278.55984	-12.43110	-473.87891	-126.01405	26.61280	129.21288	290.51288	30.99208	101.37565	80.43528	608.49042	-824.13812	-18.26605	496.80542	-540.20532	137.51694	497.77975	-544.59344	3.87525	580.57629	339.66663	151.05174	572.04211	338.59943	
4415	44.140	-152.68213	-12.65670	-517.29340	278.73300	-11.84800	-473.78427	-125.92503	26.63284	129.54590	290.63007	30.85159	101.60497	80.60629	608.59149	-823.98303	-16.80217	497.28683	-539.26782	138.61398	498.44669	-544.30719	5.53227	580.53033	340.67206	152.65179	571.89264	339.42059	
4416	44.150	-152.50999	-12.25176	-517.15051	278.87756	-11.45131	-473.67737	-125.95617	26.67768	129.50165	290.62100	30.66422	101.83866	80.83180	608.62463	-823.77936	-15.06303	497.73984	-538.08173	140.33115	498.61658	-542.86859	7.38155	580.94641	341.93811	154.19266	571.97369	340.39099	
